<?xml version="1.0" encoding="UTF-8" standalone="no" ?>
<!DOCTYPE svg PUBLIC "-//W3C//DTD SVG 1.1//EN" "http://www.w3.org/Graphics/SVG/1.1/DTD/svg11.dtd">
<svg xmlns="http://www.w3.org/2000/svg" xmlns:xlink="http://www.w3.org/1999/xlink" version="1.1" width="400" height="400" viewBox="0 0 400 400" xml:space="preserve">
<desc>Created with Fabric.js 3.6.2</desc>
<defs>
</defs>
<g transform="matrix(0.13 0 0 0.13 200 200)"  >
<path style="stroke: none; stroke-width: 1; stroke-dasharray: none; stroke-linecap: butt; stroke-dashoffset: 0; stroke-linejoin: miter; stroke-miterlimit: 4; fill: rgb(255,255,255); fill-rule: nonzero; opacity: 1;"  transform=" translate(-896, -832)" d="M 1664 896 q 0 156 -61 298 t -164 245 t -245 164 t -298 61 t -298 -61 t -245 -164 t -164 -245 t -61 -298 q 0 -182 80.5 -343 t 226.5 -270 q 43 -32 95.5 -25 t 83.5 50 q 32 42 24.5 94.5 t -49.5 84.5 q -98 74 -151.5 181 t -53.5 228 q 0 104 40.5 198.5 t 109.5 163.5 t 163.5 109.5 t 198.5 40.5 t 198.5 -40.5 t 163.5 -109.5 t 109.5 -163.5 t 40.5 -198.5 q 0 -121 -53.5 -228 t -151.5 -181 q -42 -32 -49.5 -84.5 t 24.5 -94.5 q 31 -43 84 -50 t 95 25 q 146 109 226.5 270 t 80.5 343 z m -640 -768 v 640 q 0 52 -38 90 t -90 38 t -90 -38 t -38 -90 v -640 q 0 -52 38 -90 t 90 -38 t 90 38 t 38 90 z" stroke-linecap="round" />
</g>
</svg>